<svg viewBox="0 0 512 512" xmlns="http://www.w3.org/2000/svg" role="img" aria-label="Milo">
  <defs>
    <linearGradient id="bg" x1="0" y1="0" x2="0" y2="1">
      <stop offset="0%" stop-color="#8FCBB0"/>
      <stop offset="100%" stop-color="#5FA98C"/>
    </linearGradient>
    <radialGradient id="glow" cx="50%" cy="44%" r="55%">
      <stop offset="0%" stop-color="#F6E2B0" stop-opacity=".7"/>
      <stop offset="100%" stop-color="#F6E2B0" stop-opacity="0"/>
    </radialGradient>
  </defs>
  <!-- full-bleed background (maskable safe-zone keeps the face within central 80%) -->
  <rect width="512" height="512" fill="url(#bg)"/>
  <circle cx="256" cy="232" r="150" fill="url(#glow)"/>
  <!-- ears -->
  <ellipse cx="186" cy="176" rx="34" ry="56" fill="#EAF6EF"/>
  <ellipse cx="326" cy="176" rx="34" ry="56" fill="#EAF6EF"/>
  <!-- body -->
  <ellipse cx="256" cy="268" rx="138" ry="150" fill="#FBFCFA"/>
  <ellipse cx="256" cy="288" rx="92" ry="104" fill="#DCEFE6"/>
  <!-- cheeks -->
  <ellipse cx="186" cy="276" rx="22" ry="15" fill="#E89B86" opacity=".5"/>
  <ellipse cx="326" cy="276" rx="22" ry="15" fill="#E89B86" opacity=".5"/>
  <!-- eyes -->
  <ellipse cx="210" cy="246" rx="26" ry="30" fill="#fff"/>
  <ellipse cx="302" cy="246" rx="26" ry="30" fill="#fff"/>
  <circle cx="210" cy="252" r="18" fill="#3A4A45"/>
  <circle cx="302" cy="252" r="18" fill="#3A4A45"/>
  <circle cx="217" cy="244" r="6" fill="#fff"/>
  <circle cx="309" cy="244" r="6" fill="#fff"/>
  <!-- mouth -->
  <path d="M236 296 q20 16 40 0" fill="none" stroke="#3A4A45" stroke-width="6" stroke-linecap="round"/>
  <!-- heart on belly -->
  <path transform="translate(256 348) scale(1.5)" d="M0 6 C-7 -6 -22 0 -14 12 C-9 19 0 24 0 24 C0 24 9 19 14 12 C22 0 7 -6 0 6 Z" fill="#E6A156"/>
</svg>
